<?xml version="1.0" standalone="no"?>
<!DOCTYPE svg PUBLIC "-//W3C//DTD SVG 20010904//EN"
 "http://www.w3.org/TR/2001/REC-SVG-20010904/DTD/svg10.dtd">
<svg version="1.0" xmlns="http://www.w3.org/2000/svg"
 width="512.000000pt" height="512.000000pt" viewBox="0 0 512.000000 512.000000"
 preserveAspectRatio="xMidYMid meet">

<g transform="translate(0.000000,512.000000) scale(0.100000,-0.100000)"
fill="#000000" stroke="none">
<path d="M1457 5030 c-57 -18 -93 -57 -147 -159 -150 -287 -329 -503 -585
-708 -146 -117 -165 -152 -165 -300 l0 -103 182 0 181 0 -139 -142 c-81 -83
-150 -164 -166 -194 -35 -64 -58 -161 -58 -241 l0 -63 182 0 181 0 -139 -142
c-81 -83 -150 -164 -166 -194 -35 -64 -58 -161 -58 -241 l0 -63 440 0 440 0 0
-159 0 -159 -55 -7 c-75 -9 -183 -65 -234 -121 -44 -47 -101 -154 -101 -189 0
-28 -9 -37 -61 -67 -62 -36 -115 -97 -153 -177 -28 -60 -31 -75 -31 -162 0
-89 2 -100 36 -167 26 -53 32 -72 21 -72 -105 0 -222 -126 -222 -239 0 -21 -9
-41 -25 -56 -23 -24 -28 -25 -176 -25 -186 0 -218 -8 -284 -75 -102 -101 -102
-229 0 -330 70 -70 91 -75 353 -75 l221 0 -6 -50 c-9 -78 12 -136 71 -195 32
-32 66 -55 92 -63 60 -17 3208 -17 3268 0 55 16 138 99 154 154 28 94 8 169
-63 239 -66 67 -98 75 -284 75 -148 0 -153 1 -176 25 -33 32 -33 78 0 110 l24
25 512 0 c372 0 523 3 553 12 55 16 138 99 154 154 26 89 9 163 -55 234 -66
74 -94 80 -359 80 l-223 0 -24 53 c-43 95 -142 170 -242 184 l-45 6 0 277 0
276 72 -35 c67 -34 78 -36 168 -36 91 0 100 2 172 37 91 45 148 103 191 196
27 57 32 80 33 152 l2 85 47 49 c26 27 61 79 79 115 28 60 31 75 31 161 0 86
-3 101 -31 160 -18 36 -45 81 -61 100 l-30 34 21 46 c16 35 21 65 21 140 0
101 -16 151 -71 231 -23 34 -24 39 -13 89 25 119 -15 261 -101 354 -43 47
-164 116 -204 116 -28 0 -40 10 -59 45 -32 64 -97 124 -175 162 -72 36 -81 38
-171 38 -87 0 -102 -3 -162 -31 -80 -38 -141 -91 -177 -153 -30 -53 -39 -61
-68 -61 -40 0 -161 -69 -204 -116 -86 -93 -126 -235 -101 -353 11 -52 10 -56
-18 -100 -16 -25 -35 -60 -43 -78 l-13 -32 -57 39 c-199 134 -442 114 -625
-53 -56 -52 -57 -51 -67 14 -14 85 -66 159 -210 307 l-139 142 181 0 182 0 0
103 c0 148 -19 183 -165 300 -256 205 -424 407 -582 702 -71 131 -108 164
-194 170 -29 3 -67 0 -82 -5z m85 -162 c8 -7 39 -58 67 -112 144 -274 347
-515 604 -719 53 -43 97 -80 97 -82 0 -2 3 -10 6 -19 6 -14 -23 -16 -275 -16
l-281 0 0 -80 0 -80 63 0 63 0 195 -197 c145 -147 199 -209 211 -240 l16 -43
-274 0 -274 0 0 -80 0 -80 63 0 62 0 184 -184 184 -184 -7 -56 -7 -56 -754 0
-753 0 16 43 c12 31 66 93 211 240 l195 197 63 0 63 0 0 80 0 80 -274 0 -274
0 16 43 c12 31 66 93 211 240 l195 197 63 0 63 0 0 80 0 80 -280 0 c-154 0
-280 2 -280 4 0 21 26 48 109 114 257 205 457 444 602 719 47 89 72 123 89
123 3 0 13 -6 22 -12z m2564 -816 c67 -35 115 -99 129 -174 l7 -35 71 -5 c108
-7 177 -50 223 -138 29 -56 25 -152 -10 -219 l-28 -54 46 -40 c78 -66 110
-158 87 -244 -7 -24 -34 -72 -61 -107 l-49 -64 47 -28 c105 -60 146 -123 146
-224 0 -101 -46 -171 -144 -220 -25 -12 -47 -24 -48 -25 -2 -2 6 -33 18 -69
33 -97 17 -178 -49 -249 -89 -97 -253 -97 -342 0 -55 58 -63 88 -67 235 l-4
136 151 188 c83 104 150 192 149 195 -7 18 -121 100 -127 93 -5 -5 -44 -54
-87 -108 l-79 -100 -3 402 -2 402 -80 0 -80 0 -2 -242 -3 -242 -79 100 c-43
54 -82 103 -87 108 -6 7 -120 -75 -127 -93 -1 -3 66 -91 149 -194 l150 -188
-3 -297 c-3 -267 -5 -301 -22 -332 -48 -90 -119 -134 -216 -134 -70 0 -114 16
-163 63 -47 43 -49 52 -27 143 13 52 23 134 26 218 9 214 -27 388 -118 563
-37 72 -40 83 -35 136 6 74 35 129 93 178 l46 40 -28 54 c-22 43 -28 67 -28
119 0 78 24 131 84 182 47 41 98 58 173 58 l55 0 7 37 c30 160 201 247 341
175z m-1080 -811 c133 -62 247 -224 301 -429 22 -84 26 -117 26 -252 0 -134
-4 -168 -26 -251 -58 -222 -177 -381 -329 -444 l-38 -15 0 300 0 300 150 188
c83 103 149 190 148 193 -7 18 -121 100 -127 93 -5 -5 -44 -54 -87 -108 l-79
-100 -3 122 -3 122 -79 0 -80 0 0 -307 0 -308 -86 128 c-47 71 -89 127 -93
125 -4 -2 -35 -21 -68 -42 l-60 -40 154 -231 154 -231 -3 -102 -3 -102 -53 25
c-144 67 -253 219 -309 433 -35 134 -38 353 -5 484 29 117 62 195 117 278 126
189 305 253 481 171z m-646 -125 c0 -2 -16 -37 -35 -77 -19 -41 -35 -79 -35
-86 0 -24 -16 -13 -105 77 l-90 90 133 0 c72 0 132 -2 132 -4z m-136 -658 c3
-13 9 -55 15 -95 48 -322 258 -604 494 -663 l47 -12 0 -244 0 -244 -158 0
-158 0 35 72 c34 67 36 78 36 167 0 87 -3 102 -32 163 -44 93 -100 151 -191
195 -67 34 -83 38 -163 39 l-87 2 -37 41 c-46 51 -157 107 -229 116 -46 6 -61
14 -105 55 -28 26 -64 53 -81 60 l-30 12 0 179 0 179 320 0 320 0 4 -22z
m1283 -506 c50 -23 71 -27 154 -27 89 0 100 2 167 36 l72 35 0 -218 c0 -120
-2 -218 -5 -218 -20 0 -69 34 -112 78 -32 32 -78 65 -120 85 -62 29 -77 32
-163 32 -86 0 -101 -3 -162 -32 -119 -56 -202 -159 -229 -281 -6 -29 -14 -52
-19 -52 -19 0 -94 -87 -117 -136 -13 -30 -26 -54 -29 -54 -2 0 -4 110 -4 244
l0 244 48 12 c118 29 260 140 342 267 l45 70 37 -29 c20 -15 63 -41 95 -56z
m-2026 38 c53 -15 98 -49 141 -105 l38 -50 72 0 c110 -1 178 -44 228 -145 12
-25 24 -47 25 -48 2 -2 33 6 69 18 167 57 320 -49 320 -220 0 -73 -12 -102
-77 -185 l-42 -54 -588 0 -589 -1 -46 51 c-70 77 -86 113 -86 189 0 120 77
213 196 235 l35 7 5 71 c3 40 13 87 23 107 54 107 167 160 276 130z m2126
-419 c42 -21 87 -68 106 -108 6 -13 19 -23 31 -23 39 -1 105 -38 125 -71 11
-18 25 -54 31 -81 7 -26 17 -48 23 -48 7 0 36 9 65 20 29 11 62 20 74 20 31 0
107 -39 119 -61 9 -19 -2 -19 -521 -19 -521 0 -531 0 -520 19 5 11 34 31 64
45 l53 25 5 68 c9 120 68 198 178 234 39 13 123 3 167 -20z m1207 -542 c55
-26 55 -112 0 -138 -18 -8 -178 -11 -537 -11 -574 0 -555 2 -630 -75 -51 -52
-71 -111 -64 -185 l5 -60 -84 0 -84 0 0 -80 0 -80 325 0 c219 0 332 -4 349
-11 55 -26 55 -112 0 -138 -36 -16 -3152 -16 -3188 0 -55 26 -55 112 0 138 16
7 109 11 269 11 l245 0 0 80 0 80 -565 0 c-398 0 -571 3 -589 11 -55 26 -55
112 0 138 15 6 83 11 167 11 78 0 158 5 177 10 81 22 154 107 165 188 9 66 23
98 48 110 32 16 3957 16 3991 1z"/>
<path d="M1440 800 l0 -80 149 0 c107 0 151 -4 158 -12 6 -7 13 -33 16 -57 7
-58 51 -119 106 -148 41 -21 56 -23 208 -23 l163 0 0 80 0 80 -149 0 c-107 0
-151 4 -158 13 -6 6 -13 32 -16 56 -7 58 -51 119 -106 148 -41 21 -56 23 -208
23 l-163 0 0 -80z"/>
</g>
</svg>
